<svg width="47" height="47" viewBox="0 0 47 47" fill="none" xmlns="http://www.w3.org/2000/svg">
<path fill-rule="evenodd" clip-rule="evenodd" d="M10.0723 0C7.4016 -1.96928e-07 4.84027 1.06065 2.95146 2.94873C1.06266 4.83681 0.0010256 7.39773 0 10.0684V36.9277C0 39.5991 1.06118 42.161 2.9501 44.0499C4.83901 45.9388 7.40093 47 10.0723 47H36.9316C39.6023 46.999 42.1632 45.9373 44.0513 44.0485C45.9394 42.1597 47 39.5984 47 36.9277V10.0684C46.999 7.3984 45.9379 4.83806 44.0499 2.95009C42.1619 1.06213 39.6016 0.00102514 36.9316 0H10.0723ZM39.8287 10.0839C39.8287 10.8533 39.5231 11.5911 38.9791 12.1352C38.435 12.6792 37.6971 12.9849 36.9277 12.9849C36.1583 12.9849 35.4205 12.6792 34.8764 12.1352C34.3324 11.5911 34.0267 10.8533 34.0267 10.0839C34.0267 9.31447 34.3324 8.57659 34.8764 8.03255C35.4205 7.48851 36.1583 7.18287 36.9277 7.18287C37.6971 7.18287 38.435 7.48851 38.9791 8.03255C39.5231 8.57659 39.8287 9.31447 39.8287 10.0839ZM23.5058 15.4526C21.372 15.4526 19.3256 16.3003 17.8168 17.8091C16.308 19.3179 15.4604 21.3643 15.4604 23.4981C15.4604 25.6318 16.308 27.6782 17.8168 29.187C19.3256 30.6959 21.372 31.5435 23.5058 31.5435C25.6396 31.5435 27.686 30.6959 29.1948 29.187C30.7036 27.6782 31.5512 25.6318 31.5512 23.4981C31.5512 21.3643 30.7036 19.3179 29.1948 17.8091C27.686 16.3003 25.6396 15.4526 23.5058 15.4526ZM11.5885 23.4981C11.5885 20.3384 12.8437 17.3082 15.0779 15.074C17.3121 12.8398 20.3423 11.5846 23.5019 11.5846C26.6616 11.5846 29.6918 12.8398 31.926 15.074C34.1602 17.3082 35.4154 20.3384 35.4154 23.4981C35.4154 26.6577 34.1602 29.6879 31.926 31.9221C29.6918 34.1563 26.6616 35.4115 23.5019 35.4115C20.3423 35.4115 17.3121 34.1563 15.0779 31.9221C12.8437 29.6879 11.5885 26.6577 11.5885 23.4981Z" fill="#1B242E"/>
</svg>
